Coordinates
version=1
nRows=13
nColumns=36
inDegrees=yes

Units are S.I. units (second, meters, Newtons, ...)
If the header above contains a line with 'inDegrees', this indicates whether rotational values are in degrees (yes) or radians (no).

endheader
time	pelvis_tilt	pelvis_list	pelvis_rotation	pelvis_tx	pelvis_ty	pelvis_tz	hip_flexion_r	hip_adduction_r	hip_rotation_r	knee_angle_r	knee_angle_r_beta	ankle_angle_r	subtalar_angle_r	mtp_angle_r	hip_flexion_l	hip_adduction_l	hip_rotation_l	knee_angle_l	knee_angle_l_beta	ankle_angle_l	subtalar_angle_l	mtp_angle_l	lumbar_extension	lumbar_bending	lumbar_rotation	arm_flex_r	arm_add_r	arm_rot_r	elbow_flex_r	pro_sup_r	arm_flex_l	arm_add_l	arm_rot_l	elbow_flex_l	pro_sup_l
      0.00000000	     -3.54497472	     -1.63903930	      0.60770828	     -1.01946578	      1.33775106	     -0.08330841	     -1.35209601	      1.60814065	      5.99435241	      0.31723824	      0.00553685	      1.48146887	    -14.64002193	     -5.24772161	     -0.11111723	     -1.09811205	      6.84068711	      3.13299354	      0.05468105	      6.97879793	     -9.06004869	     -5.24772161	     -7.56531080	      0.94092967	      3.85906522	     -0.00007569	     -5.40383722	      9.49549076	     32.83378771	     83.19542802	     -5.44969619	     -6.78006115	     15.58648218	     31.19900157	     71.35590192
      0.01666670	     -5.27583214	     -1.77167219	      0.44398604	     -1.01702288	      1.33732604	     -0.08414097	      0.34982003	      1.72467221	      7.02323996	      0.69450424	      0.01212139	      3.49233427	    -13.00942634	     -5.71355940	      2.94126542	     -0.47300116	      8.87236933	      5.09192842	      0.08887092	      7.13906374	     -9.84717865	     -5.71355940	     -4.67452256	      1.32457180	      3.61131362	     -1.02123387	     -4.88217579	      6.61261274	     33.51683514	     82.89461077	     -7.23880425	     -6.13315317	     11.36716485	     31.21555471	     71.40796550
      0.03333330	     -6.16880684	     -1.10025473	     -0.04272611	     -1.02320690	      1.33269537	     -0.08702438	      1.65555221	      0.89248235	      6.74421668	      0.77225912	      0.01347846	      4.17521453	    -12.43391502	     -6.35072553	      4.51421157	      0.41097781	      8.69474907	      6.05882586	      0.10574646	      7.53698112	    -10.40427683	     -6.35072553	     -3.95132039	      0.29763361	      3.70397902	     -1.43111462	     -4.40125420	      4.83186380	     34.72342751	     87.19279526	     -7.60165513	     -7.01378169	      9.07172573	     33.65927119	     78.88332759
      0.05000000	     -6.22628263	     -0.88287682	     -0.05704198	     -1.02296172	      1.33293155	     -0.08722528	      1.92312874	      0.62329434	      6.95906796	      1.09183931	      0.01905619	      4.60068737	    -12.35255108	     -6.94054315	      4.65412104	      0.80302340	      9.47210052	      6.21541416	      0.10847944	      7.55564591	    -11.34493169	     -6.94054315	     -4.00995875	     -0.04002248	      3.68516794	     -1.74236824	     -4.59899208	      5.65117107	     35.80132526	     86.73855763	     -7.77746734	     -7.92364469	      9.02225088	     34.86452516	     81.35611470
      0.06666670	     -6.28366569	     -0.85345692	     -0.20993931	     -1.02292674	      1.33341659	     -0.08688559	      2.28248750	      0.67972351	      7.45405085	      1.75087123	      0.03055847	      4.76646761	    -13.10075148	     -7.15118478	      4.86208659	      0.93750160	      9.85074328	      6.53179231	      0.11400128	      7.68317426	    -12.17840502	     -7.15118478	     -3.90213317	     -0.14739997	      3.72934613	     -1.99308499	     -5.11821496	      7.95046848	     36.97144538	     82.54952550	     -7.64055780	     -8.55808949	     10.08782396	     35.79129034	     78.17705208
      0.08333330	     -6.21699307	     -0.89715530	     -0.06413436	     -1.02276668	      1.33694804	     -0.08721142	      2.63648073	      0.91457472	      8.07459601	      2.57027874	      0.04485983	      4.71654520	    -13.75663302	     -7.30708597	      4.70771812	      0.92918839	     10.54874639	      6.38432584	      0.11142751	      7.51858368	    -12.82825348	     -7.30708597	     -3.88613729	     -0.28200834	      3.32699152	     -1.99873479	     -5.11336649	      8.79653013	     37.41995609	     86.33186673	     -7.28021837	     -8.77985732	      8.46932018	     36.29345320	     84.14221469
      0.10000000	     -6.26324222	     -1.05034192	      0.11888779	     -1.02302236	      1.33328419	     -0.08714204	      3.25156615	      1.25940671	      8.56491959	      3.78656921	      0.06608810	      4.79161697	    -14.73065022	     -7.30905945	      4.73712833	      0.75911270	     11.18714013	      6.40455394	      0.11178055	      7.46238340	    -13.31900163	     -7.30905945	     -3.53205709	     -0.30533229	      2.99457600	     -2.10895916	     -5.24962227	     10.07610771	     37.75256092	     86.08821909	     -6.88689237	     -9.16472376	      7.93218380	     36.37554575	     83.81161220
      0.11666670	     -6.22593566	     -1.21840379	      0.13241621	     -1.02307363	      1.33288976	     -0.08770283	      3.90158918	      1.59391872	      8.94102766	      5.30731278	      0.09263008	      4.84508048	    -15.88948188	     -7.32217437	      4.65661173	      0.59970900	     11.59459619	      6.33154205	      0.11050626	      7.50387624	    -13.64180910	     -7.32217437	     -3.31010223	     -0.24807246	      2.89991877	     -2.22540081	     -5.37825341	     10.79262240	     37.93584584	     85.58411462	     -6.79290645	     -9.20949544	      7.21996844	     36.72259601	     83.24088823
      0.13333330	     -6.49000349	     -1.23915916	      0.14648250	     -1.02954367	      1.33308479	     -0.09171524	      5.23517432	      1.65126696	      9.05728416	      7.12988626	      0.12443999	      5.04286580	    -16.95670735	     -7.32498954	      4.97972499	      0.65329092	     11.94614164	      6.13883721	      0.10714292	      7.39008492	    -13.96651689	     -7.32498954	     -2.93347205	     -0.22497248	      2.73136570	     -2.12648289	     -5.61834096	     11.53246013	     38.20924920	     85.81445273	     -6.65918713	     -9.13677681	      6.54857081	     36.91481665	     83.34443320
      0.15000000	     -6.67987545	     -1.33838529	      0.36906223	     -1.02917000	      1.33597750	     -0.09268560	      6.17118058	      1.73958309	      9.00598808	      8.39475378	      0.14651609	      4.72605493	    -18.00405810	     -7.36082750	      5.17530161	      0.62559269	     12.47535147	      5.88164232	      0.10265402	      7.01671556	    -14.21919850	     -7.36082750	     -2.63734526	     -0.20960791	      1.37243006	     -1.23771481	     -6.05551764	     15.16355860	     37.43400112	     86.25751022	     -7.48598336	     -8.82348298	      3.58605310	     37.90927816	     84.58319287
      0.16666670	     -6.58178278	     -1.39075268	      0.32942325	     -1.02927050	      1.33622949	     -0.09227912	      7.11277570	      1.79994418	      8.76089762	     10.19751700	      0.17798025	      4.90326500	    -18.41136253	     -7.38111263	      5.02057544	      0.58895827	     12.56187984	      5.68671169	      0.09925184	      6.84313627	    -14.09457450	     -7.38111263	     -2.82107169	     -0.17218261	      1.32988495	     -1.25915705	     -6.11567345	     15.44573454	     37.64967206	     84.25012495	     -7.31999748	     -8.95772355	      3.22843777	     38.13133661	     82.83615560
      0.18333330	     -6.65503363	     -1.50533925	      0.51865510	     -1.02915855	      1.33550776	     -0.09268259	      8.06662590	      1.92365728	      8.37735534	     11.79970327	      0.20594367	      5.11592451	    -18.73853156	     -7.42316578	      5.11191338	      0.50860094	     12.88369409	      5.59879850	      0.09771747	      6.63677539	    -14.22902703	     -7.42316578	     -2.70125200	     -0.09960433	      0.34687092	     -0.62817121	     -6.26277674	     17.36563850	     36.91237146	     86.71586197	     -7.86040413	     -8.67978813	      0.27246900	     38.53511760	     88.58354555
      0.20000000	     -6.45247782	     -1.61852619	      0.60241425	     -1.02916410	      1.33974463	     -0.09281519	      8.84683439	      2.04177334	      8.01725771	     13.55005310	      0.23649304	      5.29033602	    -18.91638315	     -7.42404854	      4.83984662	      0.38589191	     12.96260848	      5.50063787	      0.09600424	      6.53185686	    -14.07815596	     -7.42404854	     -2.92284663	      0.05315280	      0.22443644	     -0.68666211	     -6.24770047	     17.39256263	     36.92839807	     86.74788303	     -7.72147846	     -8.79067735	      0.16831126	     38.49796966	     88.66510624
